<svg xmlns="http://www.w3.org/2000/svg" width="1066.667" height="1066.667" version="1.0" viewBox="0 0 800 800"><path d="M94 389.5V532h69V436.3l30.3-.6c39.2-.8 52.6-2.8 70.7-10.4 28.2-11.9 46.6-33.5 52.6-61.4 1.9-8.9 2.2-29.8.5-38.4-4.2-20.6-13.1-36.8-27.6-50.3-16.5-15.2-39-24.5-65.4-27.2-5.8-.6-36.4-1-70.2-1H94v142.5zm127.6-86.8c18.1 6.1 27.3 21.6 26.2 44.4-.6 11.8-3.1 18-9.9 24.4-9.7 9-16.6 10.5-50.1 10.5H163v-81h26.8c22.4 0 27.7.3 31.8 1.7zM359 389.5V532h69V247h-69v142.5zM455 274v27h84v231h69V301h85v-54H455v27z"/></svg>